<svg width="627" height="135" viewBox="0 0 627 135" fill="none" xmlns="http://www.w3.org/2000/svg">
<path d="M79.8688 49.961L116.146 44.3285V46.9087L83.6856 51.9389C81.4892 52.2792 79.8688 54.17 79.8688 56.3926V67.6774L116.146 62.0448V64.6251L83.6856 69.6552C81.4892 69.9955 79.8688 71.8863 79.8688 74.1089V97.341H73.1205V74.0345C73.1205 71.8141 71.5033 69.9245 69.3096 69.5816L36 64.3753V61.795L73.1205 67.6069V56.3181C73.1205 54.0977 71.5034 52.2082 69.3097 51.8652L36 46.6579V44.0787L73.1205 49.8906V42.5042H79.8688V49.961Z" fill="#1B2A4A"/>
<rect x="69.002" y="36.9513" width="14.9987" height="6.87439" rx="0.75" fill="#B85C3D"/>
<path d="M154.459 98.292C149.239 98.292 145.034 96.755 141.844 93.681C138.712 90.549 137.146 86.373 137.146 81.153V52.965C137.146 47.803 138.712 43.685 141.844 40.611C145.034 37.537 149.239 36 154.459 36C159.737 36 163.942 37.537 167.074 40.611C170.264 43.685 171.859 47.803 171.859 52.965V53.922C171.859 54.212 171.743 54.473 171.511 54.705C171.337 54.879 171.105 54.966 170.815 54.966L160.636 55.401C159.94 55.401 159.592 55.082 159.592 54.444V52.182C159.592 50.5 159.128 49.137 158.2 48.093C157.272 47.049 156.025 46.527 154.459 46.527C152.951 46.527 151.733 47.049 150.805 48.093C149.877 49.137 149.413 50.5 149.413 52.182V82.197C149.413 83.879 149.877 85.242 150.805 86.286C151.733 87.272 152.951 87.765 154.459 87.765C156.025 87.765 157.272 87.272 158.2 86.286C159.128 85.242 159.592 83.879 159.592 82.197V79.848C159.592 79.558 159.679 79.326 159.853 79.152C160.085 78.92 160.346 78.804 160.636 78.804L170.815 79.239C171.105 79.239 171.337 79.355 171.511 79.587C171.743 79.761 171.859 79.993 171.859 80.283V81.153C171.859 86.373 170.264 90.549 167.074 93.681C163.884 96.755 159.679 98.292 154.459 98.292Z" fill="#1B2A4A"/>
<path d="M195.077 98.292C189.741 98.292 185.478 96.726 182.288 93.594C179.098 90.462 177.503 86.286 177.503 81.066V53.226C177.503 48.006 179.098 43.83 182.288 40.698C185.478 37.566 189.741 36 195.077 36C200.413 36 204.676 37.566 207.866 40.698C211.114 43.83 212.738 48.006 212.738 53.226V81.066C212.738 86.286 211.114 90.462 207.866 93.594C204.676 96.726 200.413 98.292 195.077 98.292ZM195.077 87.765C196.701 87.765 198.006 87.214 198.992 86.112C199.978 84.952 200.471 83.444 200.471 81.588V52.704C200.471 50.848 199.978 49.369 198.992 48.267C198.006 47.107 196.701 46.527 195.077 46.527C193.453 46.527 192.148 47.107 191.162 48.267C190.234 49.369 189.77 50.848 189.77 52.704V81.588C189.77 83.444 190.234 84.952 191.162 86.112C192.148 87.214 193.453 87.765 195.077 87.765Z" fill="#1B2A4A"/>
<path d="M243.506 97.596C242.868 97.596 242.462 97.306 242.288 96.726L235.589 72.714C235.473 72.482 235.328 72.366 235.154 72.366H232.196C231.906 72.366 231.761 72.511 231.761 72.801V96.552C231.761 96.842 231.645 97.103 231.413 97.335C231.239 97.509 231.007 97.596 230.717 97.596H220.538C220.248 97.596 219.987 97.509 219.755 97.335C219.581 97.103 219.494 96.842 219.494 96.552V37.74C219.494 37.45 219.581 37.218 219.755 37.044C219.987 36.812 220.248 36.696 220.538 36.696H238.112C241.302 36.696 244.144 37.479 246.638 39.045C249.132 40.553 251.046 42.699 252.38 45.483C253.772 48.267 254.468 51.457 254.468 55.053C254.468 58.475 253.801 61.491 252.467 64.101C251.191 66.711 249.393 68.741 247.073 70.191C246.957 70.249 246.87 70.336 246.812 70.452C246.754 70.51 246.754 70.597 246.812 70.713L254.816 96.378L254.903 96.726C254.903 97.306 254.584 97.596 253.946 97.596H243.506ZM232.196 47.223C231.906 47.223 231.761 47.368 231.761 47.658V62.535C231.761 62.825 231.906 62.97 232.196 62.97H236.111C237.909 62.97 239.359 62.274 240.461 60.882C241.621 59.432 242.201 57.518 242.201 55.14C242.201 52.704 241.621 50.79 240.461 49.398C239.359 47.948 237.909 47.223 236.111 47.223H232.196Z" fill="#1B2A4A"/>
<path d="M285.327 37.74C285.327 37.45 285.414 37.218 285.588 37.044C285.82 36.812 286.081 36.696 286.371 36.696H296.463C296.753 36.696 296.985 36.812 297.159 37.044C297.391 37.218 297.507 37.45 297.507 37.74V96.552C297.507 96.842 297.391 97.103 297.159 97.335C296.985 97.509 296.753 97.596 296.463 97.596H284.979C284.399 97.596 284.022 97.306 283.848 96.726L273.06 63.057C273.002 62.883 272.886 62.825 272.712 62.883C272.596 62.883 272.538 62.97 272.538 63.144L272.625 96.552C272.625 96.842 272.509 97.103 272.277 97.335C272.103 97.509 271.871 97.596 271.581 97.596H261.489C261.199 97.596 260.938 97.509 260.706 97.335C260.532 97.103 260.445 96.842 260.445 96.552V37.74C260.445 37.45 260.532 37.218 260.706 37.044C260.938 36.812 261.199 36.696 261.489 36.696H272.886C273.466 36.696 273.843 36.986 274.017 37.566L284.892 71.235C284.95 71.409 285.037 71.496 285.153 71.496C285.327 71.438 285.414 71.322 285.414 71.148L285.327 37.74Z" fill="#1B2A4A"/>
<path d="M337.064 46.179C337.064 46.469 336.948 46.73 336.716 46.962C336.542 47.136 336.31 47.223 336.02 47.223H317.837C317.547 47.223 317.402 47.368 317.402 47.658V61.404C317.402 61.694 317.547 61.839 317.837 61.839H328.277C328.567 61.839 328.799 61.955 328.973 62.187C329.205 62.361 329.321 62.593 329.321 62.883V71.322C329.321 71.612 329.205 71.873 328.973 72.105C328.799 72.279 328.567 72.366 328.277 72.366H317.837C317.547 72.366 317.402 72.511 317.402 72.801V86.634C317.402 86.924 317.547 87.069 317.837 87.069H336.02C336.31 87.069 336.542 87.185 336.716 87.417C336.948 87.591 337.064 87.823 337.064 88.113V96.552C337.064 96.842 336.948 97.103 336.716 97.335C336.542 97.509 336.31 97.596 336.02 97.596H306.179C305.889 97.596 305.628 97.509 305.396 97.335C305.222 97.103 305.135 96.842 305.135 96.552V37.74C305.135 37.45 305.222 37.218 305.396 37.044C305.628 36.812 305.889 36.696 306.179 36.696H336.02C336.31 36.696 336.542 36.812 336.716 37.044C336.948 37.218 337.064 37.45 337.064 37.74V46.179Z" fill="#1B2A4A"/>
<path d="M367.294 97.596C366.656 97.596 366.25 97.306 366.076 96.726L359.377 72.714C359.261 72.482 359.116 72.366 358.942 72.366H355.984C355.694 72.366 355.549 72.511 355.549 72.801V96.552C355.549 96.842 355.433 97.103 355.201 97.335C355.027 97.509 354.795 97.596 354.505 97.596H344.326C344.036 97.596 343.775 97.509 343.543 97.335C343.369 97.103 343.282 96.842 343.282 96.552V37.74C343.282 37.45 343.369 37.218 343.543 37.044C343.775 36.812 344.036 36.696 344.326 36.696H361.9C365.09 36.696 367.932 37.479 370.426 39.045C372.92 40.553 374.834 42.699 376.168 45.483C377.56 48.267 378.256 51.457 378.256 55.053C378.256 58.475 377.589 61.491 376.255 64.101C374.979 66.711 373.181 68.741 370.861 70.191C370.745 70.249 370.658 70.336 370.6 70.452C370.542 70.51 370.542 70.597 370.6 70.713L378.604 96.378L378.691 96.726C378.691 97.306 378.372 97.596 377.734 97.596H367.294ZM355.984 47.223C355.694 47.223 355.549 47.368 355.549 47.658V62.535C355.549 62.825 355.694 62.97 355.984 62.97H359.899C361.697 62.97 363.147 62.274 364.249 60.882C365.409 59.432 365.989 57.518 365.989 55.14C365.989 52.704 365.409 50.79 364.249 49.398C363.147 47.948 361.697 47.223 359.899 47.223H355.984Z" fill="#1B2A4A"/>
<path d="M412.073 37.392C412.305 36.928 412.74 36.696 413.378 36.696H423.47C423.76 36.696 423.992 36.812 424.166 37.044C424.398 37.218 424.514 37.45 424.514 37.74V96.552C424.514 96.842 424.398 97.103 424.166 97.335C423.992 97.509 423.76 97.596 423.47 97.596H413.291C413.001 97.596 412.74 97.509 412.508 97.335C412.334 97.103 412.247 96.842 412.247 96.552V57.489C412.247 57.257 412.189 57.141 412.073 57.141C411.957 57.141 411.841 57.228 411.725 57.402L404.939 69.408C404.649 69.872 404.417 70.104 404.243 70.104C404.069 70.104 403.837 69.872 403.547 69.408L396.761 57.402C396.645 57.228 396.529 57.141 396.413 57.141C396.297 57.141 396.239 57.257 396.239 57.489V96.552C396.239 96.842 396.123 97.103 395.891 97.335C395.717 97.509 395.485 97.596 395.195 97.596H385.016C384.726 97.596 384.465 97.509 384.233 97.335C384.059 97.103 383.972 96.842 383.972 96.552V37.74C383.972 37.45 384.059 37.218 384.233 37.044C384.465 36.812 384.726 36.696 385.016 36.696H395.021C395.601 36.696 396.036 36.928 396.326 37.392L404.069 51.225C404.243 51.457 404.417 51.457 404.591 51.225L412.073 37.392Z" fill="#1B2A4A"/>
<path d="M457.474 97.596C456.778 97.596 456.401 97.277 456.343 96.639L454.951 88.287C454.951 87.997 454.777 87.852 454.429 87.852H443.38C443.032 87.852 442.858 87.997 442.858 88.287L441.466 96.639C441.408 97.277 441.031 97.596 440.335 97.596H430.156C429.402 97.596 429.112 97.219 429.286 96.465L442.075 37.653C442.191 37.015 442.568 36.696 443.206 36.696H454.951C455.589 36.696 455.966 37.015 456.082 37.653L468.784 96.465L468.871 96.813C468.871 97.335 468.552 97.596 467.914 97.596H457.474ZM444.598 77.934C444.598 78.224 444.714 78.369 444.946 78.369H452.776C453.066 78.369 453.182 78.224 453.124 77.934L449.035 54.183C448.977 54.009 448.89 53.922 448.774 53.922C448.658 53.922 448.571 54.009 448.513 54.183L444.598 77.934Z" fill="#1B2A4A"/>
<path d="M498.749 37.74C498.749 37.45 498.836 37.218 499.01 37.044C499.242 36.812 499.503 36.696 499.793 36.696H509.885C510.175 36.696 510.407 36.812 510.581 37.044C510.813 37.218 510.929 37.45 510.929 37.74V96.552C510.929 96.842 510.813 97.103 510.581 97.335C510.407 97.509 510.175 97.596 509.885 97.596H498.401C497.821 97.596 497.444 97.306 497.27 96.726L486.482 63.057C486.424 62.883 486.308 62.825 486.134 62.883C486.018 62.883 485.96 62.97 485.96 63.144L486.047 96.552C486.047 96.842 485.931 97.103 485.699 97.335C485.525 97.509 485.293 97.596 485.003 97.596H474.911C474.621 97.596 474.36 97.509 474.128 97.335C473.954 97.103 473.867 96.842 473.867 96.552V37.74C473.867 37.45 473.954 37.218 474.128 37.044C474.36 36.812 474.621 36.696 474.911 36.696H486.308C486.888 36.696 487.265 36.986 487.439 37.566L498.314 71.235C498.372 71.409 498.459 71.496 498.575 71.496C498.749 71.438 498.836 71.322 498.836 71.148L498.749 37.74Z" fill="#1B2A4A"/>
<path d="M561.666 97.5959C560.97 97.5959 560.593 97.2769 560.535 96.6389L559.143 88.2869C559.143 87.9969 558.969 87.8519 558.621 87.8519H547.572C547.224 87.8519 547.05 87.9969 547.05 88.2869L545.658 96.6389C545.6 97.2769 545.223 97.5959 544.527 97.5959H534.348C533.594 97.5959 533.304 97.2189 533.478 96.4649L546.267 37.6529C546.383 37.0149 546.76 36.6959 547.398 36.6959H559.143C559.781 36.6959 560.158 37.0149 560.274 37.6529L572.976 96.4649L573.063 96.8129C573.063 97.3349 572.744 97.5959 572.106 97.5959H561.666ZM548.79 77.9339C548.79 78.2239 548.906 78.3689 549.138 78.3689H556.968C557.258 78.3689 557.374 78.2239 557.316 77.9339L553.227 54.1829C553.169 54.0089 553.082 53.9219 552.966 53.9219C552.85 53.9219 552.763 54.0089 552.705 54.1829L548.79 77.9339Z" fill="#B85C3D"/>
<path d="M579.102 97.5959C578.812 97.5959 578.551 97.5089 578.319 97.3349C578.145 97.1029 578.058 96.8419 578.058 96.5519V37.7399C578.058 37.4499 578.145 37.2179 578.319 37.0439C578.551 36.8119 578.812 36.6959 579.102 36.6959H589.281C589.571 36.6959 589.803 36.8119 589.977 37.0439C590.209 37.2179 590.325 37.4499 590.325 37.7399V96.5519C590.325 96.8419 590.209 97.1029 589.977 97.3349C589.803 97.5089 589.571 97.5959 589.281 97.5959H579.102Z" fill="#B85C3D"/>
</svg>
