<svg viewBox="0 0 290 290" xmlns="http://www.w3.org/2000/svg">
  <rect width="290" height="290" rx="60" fill="#F4EFE6"/>
  <g transform="translate(0,22.5)">
    <path d="M154.983 76.6925L251.723 61.6724V68.5531L165.161 81.9667C159.303 82.8743 154.983 87.9164 154.983 93.8434V123.936L251.723 108.916V115.797L165.161 129.21C159.303 130.118 154.983 135.16 154.983 141.087V203.039H136.987V140.888C136.987 134.967 132.675 129.928 126.825 129.014L37.999 115.131V108.25L136.987 123.748V93.6446C136.987 87.7237 132.675 82.6849 126.825 81.7704L37.999 67.8841V61.0063L136.987 76.5048V56.8075H154.983V76.6925Z" fill="#1B2A4A"/>
    <rect x="126.004" y="42" width="39.9964" height="18.3317" rx="2" fill="#B85C3D"/>
  </g>
</svg>
